<?xml version="1.0" standalone="no"?><!DOCTYPE svg PUBLIC "-//W3C//DTD SVG 1.1//EN" "http://www.w3.org/Graphics/SVG/1.1/DTD/svg11.dtd"><svg class="icon" width="200px" height="200.00px" viewBox="0 0 1024 1024" version="1.1" xmlns="http://www.w3.org/2000/svg"><path fill="#333333" d="M512 832c-12.8 0-23.466667-4.266667-34.133333-14.933333l-270.933334-277.333334c-40.533333-40.533333-61.866667-100.266667-57.6-157.866666 4.266667-57.6 32-113.066667 76.8-149.333334 78.933333-64 196.266667-53.333333 270.933334 23.466667l12.8 14.933333 12.8-14.933333c74.666667-76.8 192-87.466667 270.933333-23.466667 44.8 36.266667 74.666667 89.6 76.8 149.333334 4.266667 59.733333-17.066667 117.333333-57.6 157.866666l-270.933333 277.333334c-4.266667 10.666667-17.066667 14.933333-29.866667 14.933333zM347.733333 234.666667c-34.133333 0-66.133333 10.666667-93.866666 32-36.266667 29.866667-57.6 70.4-61.866667 117.333333-2.133333 46.933333 12.8 93.866667 46.933333 125.866667l270.933334 277.333333c2.133333 2.133333 4.266667 2.133333 6.4 0l270.933333-277.333333c32-32 49.066667-78.933333 46.933333-125.866667-2.133333-46.933333-25.6-89.6-61.866666-117.333333-61.866667-49.066667-153.6-40.533333-213.333334 19.2L524.8 320h-19.2l-6.4-6.4-27.733333-27.733333C435.2 251.733333 390.4 234.666667 347.733333 234.666667z"  /></svg>