<?xml version="1.0" standalone="no"?><!DOCTYPE svg PUBLIC "-//W3C//DTD SVG 1.1//EN" "http://www.w3.org/Graphics/SVG/1.1/DTD/svg11.dtd"><svg t="1619094849410" class="icon" viewBox="0 0 1024 1024" version="1.1" xmlns="http://www.w3.org/2000/svg" p-id="5611" xmlns:xlink="http://www.w3.org/1999/xlink" width="200" height="200"><defs><style type="text/css"></style></defs><path d="M494.53 108.25c-182.81 0-331.01 148.2-331.01 331.01s331.01 484.1 331.01 484.1 331.01-301.28 331.01-484.1c0-182.81-148.2-331.01-331.01-331.01z m120.45 601.98c-44.48 52.85-89.42 99.28-120.45 130-31.03-30.72-75.97-77.15-120.45-130-45.54-54.11-81.58-104.12-107.12-148.62-35.91-62.56-43.44-101.06-43.44-122.35 0-36.61 7.16-72.1 21.27-105.47 13.65-32.27 33.2-61.25 58.11-86.16 24.91-24.91 53.9-44.46 86.16-58.11 33.37-14.12 68.86-21.27 105.47-21.27s72.1 7.16 105.47 21.27c32.27 13.65 61.25 33.2 86.16 58.11 24.91 24.91 44.46 53.9 58.11 86.16 14.12 33.37 21.27 68.86 21.27 105.47 0 21.28-7.54 59.79-43.44 122.35-25.54 44.51-61.58 94.51-107.12 148.62z" p-id="5612"></path><path d="M494.53 278.66c-81.31 0-147.22 65.91-147.22 147.22S413.22 573.1 494.53 573.1s147.22-65.91 147.22-147.22-65.91-147.22-147.22-147.22z m0 234.44c-48.09 0-87.22-39.13-87.22-87.22 0-48.09 39.13-87.22 87.22-87.22s87.22 39.13 87.22 87.22c0 48.09-39.13 87.22-87.22 87.22z" p-id="5613"></path></svg>