<?xml version="1.0" standalone="no"?><!DOCTYPE svg PUBLIC "-//W3C//DTD SVG 1.1//EN" "http://www.w3.org/Graphics/SVG/1.1/DTD/svg11.dtd"><svg t="1619611133713" class="icon" viewBox="0 0 1024 1024" version="1.1" xmlns="http://www.w3.org/2000/svg" p-id="4081" xmlns:xlink="http://www.w3.org/1999/xlink" width="200" height="200"><defs><style type="text/css"></style></defs><path d="M510.073377 407.480715c-31.066792 0-60.688617-9.873942-85.253057-28.417686-10.596425-7.947319-12.763876-23.119473-4.816557-33.715898 7.947319-10.596425 23.119473-12.763876 33.715898-4.816557a93.778363 93.778363 0 0 0 150.035748-74.89746 93.92286 93.92286 0 0 0-93.682032-93.682032c-13.245532 0-24.082785-10.837253-24.082784-24.082785s10.837253-24.082785 24.082784-24.082784c78.26905 0 141.847601 63.578551 141.847601 141.847601s-63.819379 141.847601-141.847601 141.847601z" fill="#1D9C8B" p-id="4082"></path><path d="M509.110066 903.345249c-177.008467 0-328.248354-124.507996-367.503293-302.720602a23.986453 23.986453 0 0 1 18.302917-28.658513 23.986453 23.986453 0 0 1 28.658513 18.302916c34.438382 156.056444 166.171214 264.91063 320.541863 264.91063 152.925682 0 284.658514-107.890875 319.819379-262.261524 2.889934-13.004704 15.894638-21.19285 28.899341-18.062088 13.004704 2.889934 21.19285 15.894638 18.062089 28.899341-40.459078 176.285983-191.21731 299.58984-366.780809 299.58984zM852.771402 446.01317c-10.355597 0-19.988711-6.74318-23.119473-17.098777-23.841957-79.954845-80.918156-161.113829-142.088429-202.054562a24.058702 24.058702 0 0 1-6.502352-33.475071c7.465663-11.078081 22.39699-13.968015 33.47507-6.502352 70.562559 47.443086 133.900282 137.031044 161.113829 228.304798 3.853246 12.763876-3.37159 26.250235-16.135466 30.103481-2.167451 0.240828-4.575729 0.722484-6.743179 0.722483zM164.967074 449.143932c-2.408278 0-4.575729-0.240828-6.984007-0.963311-12.763876-3.853246-19.988711-17.339605-16.135466-30.103481 50.33302-167.857008 208.075259-294.291627 367.021637-294.291627 13.245532 0 24.082785 10.837253 24.082785 24.082784s-10.837253 24.082785-24.082785 24.082785c-138.476011 0-276.470367 111.74412-321.023518 260.094073-2.889934 10.355597-12.523048 17.098777-22.878646 17.098777z" fill="#2C3333" p-id="4083"></path><path d="M158.946378 619.650047c-62.61524 0-113.670743-49.128881-113.670743-109.335842S96.331138 400.978363 158.946378 400.978363c13.245532 0 24.082785 10.837253 24.082785 24.082785s-10.837253 24.082785-24.082785 24.082784c-36.124177 0-65.505174 27.454374-65.505174 61.170273 0 35.160865 32.993415 63.337723 70.080903 60.929445a23.986453 23.986453 0 0 1 25.527752 22.39699 23.841957 23.841957 0 0 1-22.39699 25.527751c-2.649106 0.240828-5.298213 0.481656-7.706491 0.481656zM861.682032 619.650047c-2.649106 0-5.057385 0-7.706491-0.240828a23.986453 23.986453 0 1 1 3.130762-47.924741c1.444967 0 3.130762 0.240828 4.575729 0.240828 36.124177 0 65.505174-27.454374 65.505174-61.170273 0-32.511759-36.84666-64.301035-74.415804-64.301035-13.245532 0-24.082785-10.837253-24.082785-24.082784s10.837253-24.082785 24.082785-24.082785c64.060207 0 122.581373 53.70461 122.581373 112.466604 0 59.966134-51.055503 109.095014-113.670743 109.095014zM385.083725 550.773283c-25.768579 0-46.720602-20.952023-46.720602-46.720602S359.315146 457.572907 385.083725 457.572907s46.720602 20.952023 46.720602 46.720602-21.19285 46.479774-46.720602 46.479774z m0-48.165569l-1.444967 1.444967c0 0.722484 0.722484 1.444967 1.444967 1.444967v-2.889934zM653.365945 550.773283c-25.768579 0-46.720602-20.952023-46.720602-46.720602S627.597366 457.572907 653.365945 457.572907s46.720602 20.952023 46.720603 46.720602-20.952023 46.479774-46.720603 46.479774z m0-48.165569l-1.444967 1.444967c0 0.722484 0.722484 1.444967 1.444967 1.444967v-2.889934zM505.497648 718.630292c-52.982126 0-94.886171-27.93603-115.838194-51.537159a23.817874 23.817874 0 0 1 2.167451-33.956727 24.034619 24.034619 0 0 1 33.956726 1.926623c7.465663 8.188147 74.415804 76.824083 169.783631-2.408278a24.082785 24.082785 0 1 1 30.825965 37.087488c-43.58984 35.883349-84.771402 48.888053-120.895579 48.888053z" fill="#2C3333" p-id="4084"></path></svg>