<?xml version="1.0" standalone="no"?><!DOCTYPE svg PUBLIC "-//W3C//DTD SVG 1.1//EN" "http://www.w3.org/Graphics/SVG/1.1/DTD/svg11.dtd"><svg t="1619611170894" class="icon" viewBox="0 0 1024 1024" version="1.1" xmlns="http://www.w3.org/2000/svg" p-id="4379" xmlns:xlink="http://www.w3.org/1999/xlink" width="200" height="200"><defs><style type="text/css"></style></defs><path d="M824.32 462.592H199.68a21.504 21.504 0 1 0 0 43.008h624.64a21.504 21.504 0 1 0 0-43.008zM416.512 195.584a19.456 19.456 0 0 0-25.6-8.192 208.64 208.64 0 0 0-97.536 122.112 19.712 19.712 0 0 0 13.824 23.296 14.848 14.848 0 0 0 4.864 0 19.712 19.712 0 0 0 18.944-14.848 173.312 173.312 0 0 1 76.8-97.024 19.2 19.2 0 0 0 8.704-25.344zM516.096 172.8c-4.096 2.048-98.816 51.2-124.928 140.8a19.456 19.456 0 0 0 18.688 25.6 19.968 19.968 0 0 0 18.944-14.08c21.248-73.728 103.936-116.48 104.96-116.736a19.968 19.968 0 0 0 8.448-25.6 19.456 19.456 0 0 0-26.112-9.984z" p-id="4380"></path><path d="M512 0a512 512 0 1 0 512 512A512 512 0 0 0 512 0z m0 126.208a313.088 313.088 0 0 1 302.848 235.008H209.152A313.088 313.088 0 0 1 512 126.208z m152.32 768h-304.64a25.6 25.6 0 0 1 0-53.76H665.6a25.6 25.6 0 0 1 0 53.76z m192.512-418.816A344.576 344.576 0 0 1 495.36 819.2 351.232 351.232 0 0 1 167.168 465.664v-54.784a21.76 21.76 0 0 1 21.76-21.504h646.144a21.76 21.76 0 0 1 21.76 21.504z" p-id="4381"></path></svg>