<?xml version="1.0" standalone="no"?><!DOCTYPE svg PUBLIC "-//W3C//DTD SVG 1.1//EN" "http://www.w3.org/Graphics/SVG/1.1/DTD/svg11.dtd"><svg t="1618976622685" class="icon" viewBox="0 0 1024 1024" version="1.1" xmlns="http://www.w3.org/2000/svg" p-id="8092" xmlns:xlink="http://www.w3.org/1999/xlink" width="200" height="200"><defs><style type="text/css"></style></defs><path d="M95 95m77 0l232 0q77 0 77 77l0 232q0 77-77 77l-232 0q-77 0-77-77l0-232q0-77 77-77Z" fill="#333333" p-id="8093"></path><path d="M95 544m77 0l232 0q77 0 77 77l0 232q0 77-77 77l-232 0q-77 0-77-77l0-232q0-77 77-77Z" fill="#333333" p-id="8094"></path><path d="M544 544m77 0l232 0q77 0 77 77l0 232q0 77-77 77l-232 0q-77 0-77-77l0-232q0-77 77-77Z" fill="#333333" p-id="8095"></path><path d="M544 95m193 0l0 0q193 0 193 193l0 0q0 193-193 193l0 0q-193 0-193-193l0 0q0-193 193-193Z" fill="#333333" p-id="8096"></path></svg>