<?xml version="1.0" standalone="no"?><!DOCTYPE svg PUBLIC "-//W3C//DTD SVG 1.1//EN" "http://www.w3.org/Graphics/SVG/1.1/DTD/svg11.dtd"><svg t="1618976604560" class="icon" viewBox="0 0 1024 1024" version="1.1" xmlns="http://www.w3.org/2000/svg" p-id="7331" xmlns:xlink="http://www.w3.org/1999/xlink" width="200" height="200"><defs><style type="text/css"></style></defs><path d="M503.488 673.28l152 263.104c126.016-42.56 226.88-139.648 274.56-263.104L503.488 673.28z" p-id="7332"></path><path d="M526.528 343.744 376.96 84.736C249.408 124.992 146.688 220.8 96.832 343.744L526.528 343.744z" p-id="7333"></path><path d="M623.36 624.256l322.432 0C955.072 588.352 960 550.784 960 512c0-109.888-39.616-210.496-105.344-288.448L623.36 624.256z" p-id="7334"></path><path d="M582.976 343.744l4.992 8.128 10.112 17.856 57.792 100.096 163.648-283.456C739.328 110.592 631.104 64 512 64 482.688 64 454.08 66.88 426.368 72.256L582.976 343.744z" p-id="7335"></path><path d="M404.224 392.704 80.192 392.704C69.696 430.656 64 470.656 64 512c0 109.76 39.488 210.24 105.024 288.128L404.224 392.704z" p-id="7336"></path><path d="M372.864 544.96l-168.768 292.288C284.352 913.344 392.704 960 512 960c32.512 0 64.128-3.584 94.656-10.112L372.864 544.96z" p-id="7337"></path></svg>