<?xml version="1.0" standalone="no"?><!DOCTYPE svg PUBLIC "-//W3C//DTD SVG 1.1//EN" "http://www.w3.org/Graphics/SVG/1.1/DTD/svg11.dtd"><svg t="1620226312134" class="icon" viewBox="0 0 1024 1024" version="1.1" xmlns="http://www.w3.org/2000/svg" p-id="3763" xmlns:xlink="http://www.w3.org/1999/xlink" width="200" height="200"><defs><style type="text/css"></style></defs><path d="M837.8 701.1c0 82.2-66.8 149-149 149H329.5c-82.2 0-149-66.8-149-149V341.8c0-82.2 66.8-149 149-149h129.8v-42.7H329.5c-105.7 0-191.7 86-191.7 191.7v359.3c0 105.7 86 191.7 191.7 191.7h359.3c105.7 0 191.7-86 191.7-191.7V571.3h-42.7v129.8z" p-id="3764"></path><path d="M840.1 281.6H730c-248.3 0-450.3 202-450.3 450.3h42.7c0-224.7 182.8-407.6 407.6-407.6h109.9c-1.9 3.4-4.3 6.7-7.2 9.6L714.9 452.1l30.3 30.2L863 364.1c33.7-33.9 33.7-88.9-0.1-122.7L745.1 123.7l-30.2 30.2 117.7 117.7c3.1 3 5.6 6.4 7.5 10z" p-id="3765"></path></svg>