<?xml version="1.0" standalone="no"?><!DOCTYPE svg PUBLIC "-//W3C//DTD SVG 1.1//EN" "http://www.w3.org/Graphics/SVG/1.1/DTD/svg11.dtd"><svg t="1618919377516" class="icon" viewBox="0 0 1024 1024" version="1.1" xmlns="http://www.w3.org/2000/svg" p-id="5704" xmlns:xlink="http://www.w3.org/1999/xlink" width="200" height="200"><defs><style type="text/css"></style></defs><path d="M810.8544 149.3504h-53.4528v-6.0416a40.6528 40.6528 0 0 0-81.3056 0v6.0416H349.696v-6.0416c0-22.4768-18.2272-40.6528-40.6528-40.6528s-40.6528 18.2272-40.6528 40.6528v6.0416h-49.8688c-82.2272 0-149.0944 66.8672-149.0944 149.0944v447.0784c0 82.2272 66.8672 149.0944 149.0944 149.0944h592.3328c82.2272 0 149.0944-66.8672 149.0944-149.0944V298.4448c0-82.176-66.9184-149.0944-149.0944-149.0944zM218.5216 230.7072h49.8688v13.2096c0 22.4768 18.2272 40.6528 40.6528 40.6528s40.6528-18.2272 40.6528-40.6528v-13.2096h326.4v13.2096a40.6528 40.6528 0 0 0 81.3056 0v-13.2096h53.4528c37.376 0 67.7888 30.4128 67.7888 67.7888v40.0384H150.7328V298.496c0-37.4272 30.4128-67.7888 67.7888-67.7888z" fill="#aaaaf8" p-id="5705"></path><path d="M387.584 778.5984c-63.0272 0-110.5408-70.6048-110.5408-164.3008s47.5136-164.3008 110.5408-164.3008 110.5408 70.6048 110.5408 164.3008-47.5136 164.3008-110.5408 164.3008z m0-251.8016c-8.6528 0-33.7408 30.1056-33.7408 87.5008s25.0368 87.5008 33.7408 87.5008 33.7408-30.1056 33.7408-87.5008-25.088-87.5008-33.7408-87.5008zM636.0064 769.2288c-0.5632 0-1.1776 0-1.7408-0.0512-21.1968-0.9216-37.5808-18.8928-36.6592-40.0896 3.9424-88.064 29.2864-154.88 53.2992-199.3728h-77.0048c-21.1968 0-38.4-17.2032-38.4-38.4s17.2032-38.4 38.4-38.4h149.8112c15.4624 0 29.44 9.2672 35.4304 23.552 5.9904 14.2336 2.816 30.72-7.9872 41.728-0.5632 0.5632-70.5024 75.2128-76.7488 214.3232-1.024 20.6336-18.0224 36.7104-38.4 36.7104z" fill="#FFCD43" p-id="5706"></path></svg>