<?xml version="1.0" standalone="no"?><!DOCTYPE svg PUBLIC "-//W3C//DTD SVG 1.1//EN" "http://www.w3.org/Graphics/SVG/1.1/DTD/svg11.dtd"><svg t="1618976519687" class="icon" viewBox="0 0 1024 1024" version="1.1" xmlns="http://www.w3.org/2000/svg" p-id="5776" xmlns:xlink="http://www.w3.org/1999/xlink" width="200" height="200"><defs><style type="text/css"></style></defs><path d="M851.2 323.7c-8.1-4.9-17.3-7.5-27.6-7.5-10 0-20.3 2.5-30.7 7.4l-141.5 66.9V367c0-44.2-36.8-80-81.8-80H227.9c-45.2 0-81.8 35.9-81.8 80v289.2c0 44.2 36.8 80 81.8 80h341.5c45.2 0 81.8-36 81.8-80v-23.4L793 700.3c10.3 4.9 20.7 7.5 30.8 7.5 10.1 0 19.4-2.6 27.4-7.4 16.2-9.9 25.5-28.6 25.5-51.3v-274c0-22.6-9.2-41.3-25.5-51.4z m-25.9 83.8v208.2c0 7.2-2.2 12.9-5.8 15.1-1.5 0.9-3.4 1.4-5.6 1.4-3.1 0-6.7-1-10.6-2.8l-117.5-57.3V450.5l117.4-56.7c3.8-1.8 7.5-2.8 10.6-2.8 2.2 0 4.1 0.5 5.6 1.5 3.7 2.1 5.9 7.7 5.9 15z m-628.1-27.8c0-22 18.4-39.7 41.2-39.7h318.8c22.7 0 41.2 17.8 41.2 39.7v266.4c0 22-18.4 39.7-41.2 39.7H238.4c-22.6 0-41.2-17.8-41.2-39.7V379.7z m0 0" p-id="5777"></path><path d="M555.4 668.4h-315c-13.6 0-24.7-11.1-24.7-24.7V387.4c0-13.6 11.1-24.7 24.7-24.7h315c13.6 0 24.7 11.1 24.7 24.7v256.3c0 13.7-11 24.7-24.7 24.7z" fill="#335883" p-id="5778"></path><path d="M275 435.4c5.7 0 11.4-2.3 15.4-6.4 4.1-4.1 6.4-9.7 6.4-15.4 0-5.8-2.3-11.4-6.4-15.4s-9.7-6.4-15.4-6.4-11.4 2.3-15.4 6.4c-4.1 4.1-6.4 9.7-6.4 15.4 0 5.7 2.3 11.4 6.4 15.4 4 4 9.7 6.4 15.4 6.4z m0 0" fill="#FFFFFF" p-id="5779"></path></svg>