<?xml version="1.0" standalone="no"?><!DOCTYPE svg PUBLIC "-//W3C//DTD SVG 1.1//EN" "http://www.w3.org/Graphics/SVG/1.1/DTD/svg11.dtd"><svg class="icon" width="200px" height="200.00px" viewBox="0 0 1024 1024" version="1.1" xmlns="http://www.w3.org/2000/svg"><path d="M633.2416 330.0352a236.7488 236.7488 0 0 1 37.4784-128.1024 249.6512 249.6512 0 0 0-108.3392 28.4672 88.576 88.576 0 0 1-81.92 0 256 256 0 0 0-120.1152-28.9792c-135.8848 0-209.1008 122.88-209.1008 237.9776 0 157.4912 117.1456 300.3392 348.16 424.6528a49.152 49.152 0 0 0 46.2848 0C711.68 774.7584 819.2 675.84 866.2016 567.9104a237.8752 237.8752 0 0 1-232.96-237.8752z m6.7584 231.7312h-92.16v92.16a25.9072 25.9072 0 1 1-51.712 0v-92.16h-92.16a25.9072 25.9072 0 0 1 0-51.712h92.16v-92.16a25.9072 25.9072 0 1 1 51.712 0v92.16h92.16a25.9072 25.9072 0 1 1 0 51.712z" fill="#FF7E00" /><path d="M640.1024 509.952h-92.16v51.712h92.16a25.9072 25.9072 0 1 0 0-51.712zM404.3776 509.952a25.9072 25.9072 0 0 0 0 51.712h92.16V509.952z" fill="#FFFFFF" /><path d="M496.3328 653.7216a25.9072 25.9072 0 1 0 51.712 0v-92.16h-51.712zM548.1472 417.9968a25.9072 25.9072 0 1 0-51.712 0v92.16h51.712z" fill="#FFFFFF" /><path d="M496.3328 509.952h51.712v51.712h-51.712z" fill="#FFFFFF" /><path d="M681.2672 201.6256h-10.24a237.8752 237.8752 0 0 0 195.1744 366.2848 319.1808 319.1808 0 0 0 27.5456-129.3312c0-116.5312-79.4624-236.9536-212.48-236.9536z" fill="#FF7E00" /><path d="M681.2672 201.6256h-10.24a237.8752 237.8752 0 0 0 195.1744 366.2848 319.1808 319.1808 0 0 0 27.5456-129.3312c0-116.5312-79.4624-236.9536-212.48-236.9536z" fill="#FD973F" /></svg>