<?xml version="1.0" standalone="no"?><!DOCTYPE svg PUBLIC "-//W3C//DTD SVG 1.1//EN" "http://www.w3.org/Graphics/SVG/1.1/DTD/svg11.dtd"><svg class="icon" width="200px" height="200.00px" viewBox="0 0 1024 1024" version="1.1" xmlns="http://www.w3.org/2000/svg"><path d="M257.297041 600.997963l144.475485 157.123551 403.865188-365.587396-326.395792-5.956666z" fill="#75B9EB" /><path d="M409.082002 775.98844c-17.572214 0-34.026978-6.831592-46.346561-19.22076L258.386862 651.808186c-12.284791-12.33698-19.002796-28.774347-18.950608-46.275953 0.052189-17.48421 6.875594-33.878598 19.211551-46.14497l327.528591-325.600682c24.673959-24.568559 67.861574-24.402783 92.412737 0.270153L782.938736 339.024413c25.406646 25.555026 25.284873 67.0153-0.261967 92.421946L455.148178 757.037832c-12.283768 12.223393-28.65155 18.950607-46.066176 18.950608z m223.162616-525.416568c-7.90504 0-15.32094 3.036149-20.869306 8.550747l-327.529615 325.600683c-5.566786 5.54018-8.655124 12.973476-8.67252 20.922518-0.034792 7.948019 3.001357 15.390525 8.550746 20.965498L388.072503 731.569788c11.062963 11.132548 30.711466 11.211343 41.878806 0.130983l327.528592-325.591473c11.5695-11.516288 11.621688-30.31033 0.121773-41.888016L653.254118 259.253602c-5.566786-5.601578-13.017478-8.68173-21.0095-8.68173z" fill="#885F44" /><path d="M852.492858 446.137966a17.809621 17.809621 0 0 1-12.633738-5.235234L565.865815 166.918637c-6.979972-6.979972-6.979972-18.287505 0-25.267476 6.979972-6.979972 18.287505-6.979972 25.267477 0l273.993304 273.985118c6.979972 6.979972 6.979972 18.287505 0 25.267476a17.810644 17.810644 0 0 1-12.633738 5.234211z" fill="#885F44" /><path d="M721.446219 315.100538a17.809621 17.809621 0 0 1-12.633738-5.235235c-6.979972-6.979972-6.979972-18.287505 0-25.267476l154.865114-154.855904c6.979972-6.979972 18.287505-6.979972 25.267476 0 6.979972 6.979972 6.979972 18.287505 0 25.267477l-154.865113 154.856927a17.810644 17.810644 0 0 1-12.633739 5.234211z" fill="#885F44" /><path d="M935.86673 219.808218a17.809621 17.809621 0 0 1-12.633738-5.235234L804.12322 95.445816c-6.979972-6.979972-6.979972-18.295692 0-25.267477 6.979972-6.979972 18.287505-6.979972 25.267477 0l119.110795 119.128191c6.979972 6.979972 6.979972 18.295692 0 25.267477a17.815761 17.815761 0 0 1-12.634762 5.234211zM78.184687 958.362071a17.809621 17.809621 0 0 1-12.633739-5.235235c-6.979972-6.979972-6.979972-18.287505 0-25.267477l190.602036-190.592826c6.979972-6.979972 18.287505-6.979972 25.267477 0s6.979972 18.287505 0 25.267477L90.818425 953.127859a17.810644 17.810644 0 0 1-12.633738 5.234212z" fill="#885F44" /><path d="M216.643132 602.458221L413.615249 799.430338a1.813299 1.813299 0 0 1 0 2.558266l-42.113143 42.113143a1.813299 1.813299 0 0 1-2.558266 0L171.971723 647.12963a1.813299 1.813299 0 0 1 0-2.558265l42.113143-42.113144a1.815345 1.815345 0 0 1 2.558266 0z" fill="#75B9EB" /><path d="M370.220926 850.131067c-13.227256 0-25.651216-5.129834-34.969443-14.44806L180.387393 680.817893c-19.282159-19.282159-19.282159-50.655703 0-69.937862 18.636452-18.636452 51.30141-18.636452 69.937862 0l154.865114 154.865114c19.282159 19.282159 19.282159 50.655703 0 69.937862-9.318226 9.318226-21.742187 14.44806-34.969443 14.44806zM215.356836 632.168893c-3.681856 0-7.136537 1.413186-9.701966 3.978615-5.339612 5.348821-5.339612 14.056134 0 19.403932l154.865113 154.865114c5.129834 5.129834 14.274098 5.129834 19.403933 0 5.339612-5.348821 5.339612-14.056134 0-19.403933L225.058802 636.146485c-2.565429-2.564405-6.02011-3.977591-9.701966-3.977592z" fill="#885F44" /><path d="M412.450726 606.222965l83.391269 83.390245-25.266453 25.267477-83.391269-83.391269z" fill="#885F44" /><path d="M472.061382 546.672684l83.376943 83.376942-25.26543 25.266454-83.378989-83.376943z" fill="#885F44" /><path d="M531.539009 487.10296l83.386152 83.385129-25.267477 25.267477-83.385129-83.386152z" fill="#885F44" /><path d="M579.271126 439.45373l83.376943 83.377966-25.266454 25.266453-83.377965-83.376942z" fill="#885F44" /></svg>