<?xml version="1.0" standalone="no"?><!DOCTYPE svg PUBLIC "-//W3C//DTD SVG 1.1//EN" "http://www.w3.org/Graphics/SVG/1.1/DTD/svg11.dtd"><svg class="icon" width="200px" height="200.00px" viewBox="0 0 1024 1024" version="1.1" xmlns="http://www.w3.org/2000/svg"><path d="M0 0h1024v1024H0z" fill="#FFFFFF" fill-opacity="0" /><path d="M512 512m-455.111111 0a455.111111 455.111111 0 1 0 910.222222 0 455.111111 455.111111 0 1 0-910.222222 0Z" fill="#48A8FF" /><path d="M491.68448 333.844876l197.068892 113.777778-156.444445 270.969726a85.333333 85.333333 0 0 1-116.567501 31.234168L366.474203 721.382104a85.333333 85.333333 0 0 1-31.234168-116.567501L491.68448 333.844876z" fill="#FFFFFF" /><path d="M577.017813 186.043207m24.633611 14.222222l147.801669 85.333334q24.633611 14.222222 10.41139 38.855834l0 0q-14.222222 24.633611-38.855834 10.411389l-147.801669-85.333334q-24.633611-14.222222-10.411389-38.855833l0 0q14.222222-24.633611 38.855833-10.41139Z" fill="#FFFFFF" /><path d="M671.741426 306.421541l-28.444444 49.267223a28.444444 28.444444 0 1 1-49.267223-28.444444L622.474203 277.977097a28.444444 28.444444 0 1 1 49.267223 28.444444z" fill="#FFFFFF" /><path d="M470.861701 256.133209l295.603338 170.666666a28.444444 28.444444 0 0 1-28.444444 49.267223L442.417257 305.400432a28.444444 28.444444 0 1 1 28.444444-49.267223z" fill="#FFFFFF" /><path d="M561.774481 440.000988l98.534446 56.888889-28.444444 49.267223L533.330037 489.268211a28.444444 28.444444 0 1 1 28.444444-49.267223zM529.519204 552.757656l73.900834 42.666667-28.444444 49.267223L501.074759 602.024879a28.444444 28.444444 0 0 1 28.444445-49.267223zM497.263926 665.514324l49.267223 28.444445-28.444444 49.267223L468.819482 714.781547a28.444444 28.444444 0 0 1 28.444444-49.267223z" fill="#48A8FF" /><path d="M405.330037 710.970714a28.444444 28.444444 0 0 1 10.411389 38.855834l-28.444444 49.267223a28.444444 28.444444 0 0 1-49.267223-28.444444l28.444444-49.267223a28.444444 28.444444 0 0 1 38.855834-10.41139z" fill="#FFFFFF" /></svg>